# xmcd
#
# Track frame offsets: 
#        150
#        18960
#        37560
#        55074
#        74866
#        94343
#        111576
#        127230
#        142292
#        159473
#
# Disc length: 2356 seconds
#
# Revision: 7
# Processed by: cddbd v1.5.2PL0 Copyright (c) Steve Scherf et al.
# Submitted via: ExactAudioCopyFreeDBPlugin 1.0
#
DISCID=9509320a
DTITLE=WAX - 3집
DYEAR=2002
DGENRE=Pop
TTITLE0=그때 그 사람
TTITLE1=여정
TTITLE2=부탁해요
TTITLE3=파도
TTITLE4=그날
TTITLE5=별
TTITLE6=노부사(노래를 부르는 사람들)
TTITLE7=내게 너무 이쁜 당신
TTITLE8=아줌마
TTITLE9=지하철을 타고
EXTD=
EXTT0=
EXTT1=
EXTT2=
EXTT3=
EXTT4=
EXTT5=
EXTT6=
EXTT7=
EXTT8=
EXTT9=
PLAYORDER=
